<svg id="Layer_1" data-name="Layer 1" xmlns="http://www.w3.org/2000/svg" viewBox="0 0 432 113"><title>mmagdys_01</title><rect x="1.5" y="1.5" width="429" height="110" fill="#fff"/><path d="M457,42V149H31V42H457m3-3H28V152H460V39Z" transform="translate(-28 -39)" fill="#605f5f"/><path d="M105.37,121.35a1.07,1.07,0,0,1-1.22,1.21H89.31c-.81,0-1.21-.45-1.21-1.36q0-3.95.31-11.84t.31-11.83c0-.76-.12-1.16-.37-1.22q-.46.24-5.62,12.07-3,7-6,13.87a1.73,1.73,0,0,1-1,1.06c-.14,0-.7,0-1.67,0-1.46,0-2.32-.27-2.6-.79q-2.27-4.29-6-12.5-3.93-8.67-5.91-12.53a1.1,1.1,0,0,0-.38-.43,1.78,1.78,0,0,0-.29,1.13q0,3.83.21,11.48t.21,11.49c0,.91-.39,1.36-1.17,1.36h-14c-.56,0-.9-.08-1-.25a1.49,1.49,0,0,1-.19-.88q0-4.26.44-12.79t.44-12.79q0-4.53-.42-17,0-3.24-.38-9.64l0-.67c0-.52.56-.78,1.76-.78,1.54,0,3.84-.05,6.92-.14s5.38-.13,6.92-.13c.3,0,.74.54,1.29,1.64L72,94.17c.86,1.69,1.59,2.54,2.18,2.54.3,0,1-1,2-2.93q4.23-8.2,12.53-24.73c.48-1,1-1.52,1.56-1.52.81,0,2,0,3.66.11s2.88.12,3.71.12,1.77-.06,3.21-.2,2.51-.19,3.21-.19,1.26.31,1.26.94q0,4.6-.36,13.77t-.36,13.77q0,4.25.38,12.77T105.37,121.35Z" transform="translate(-28 -39)" fill="#605f5f" stroke="#605f5f" stroke-miterlimit="10"/><path d="M175.68,121.35a1.07,1.07,0,0,1-1.22,1.21H159.62c-.81,0-1.21-.45-1.21-1.36q0-3.95.31-11.84T159,97.53c0-.76-.12-1.16-.37-1.22q-.47.24-5.62,12.07-3,7-6,13.87a1.73,1.73,0,0,1-1.05,1.06c-.14,0-.7,0-1.67,0-1.46,0-2.32-.27-2.6-.79q-2.27-4.29-6-12.5-3.93-8.67-5.91-12.53a1.1,1.1,0,0,0-.38-.43,1.78,1.78,0,0,0-.29,1.13q0,3.83.21,11.48t.21,11.49c0,.91-.39,1.36-1.17,1.36h-14c-.56,0-.9-.08-1-.25a1.49,1.49,0,0,1-.19-.88q0-4.26.44-12.79t.44-12.79q0-4.53-.42-17,0-3.24-.38-9.64l0-.67c0-.52.56-.78,1.76-.78,1.54,0,3.84-.05,6.92-.14s5.38-.13,6.92-.13c.3,0,.74.54,1.3,1.64l12.24,25c.86,1.69,1.59,2.54,2.18,2.54.31,0,1-1,2-2.93q4.23-8.2,12.53-24.73c.48-1,1-1.52,1.56-1.52.81,0,2,0,3.66.11s2.88.12,3.71.12,1.77-.06,3.21-.2,2.51-.19,3.21-.19,1.26.31,1.26.94q0,4.6-.36,13.77t-.36,13.77q0,4.25.38,12.77T175.68,121.35Z" transform="translate(-28 -39)" fill="#605f5f" stroke="#605f5f" stroke-miterlimit="10"/><path d="M238.78,121.59c0,.47-.35.79-1.05,1a50.93,50.93,0,0,1-7.8.32,56,56,0,0,1-7.71-.32,2.19,2.19,0,0,1-1.81-1.75q-1.42-5.62-2.22-6c-.44-.18-4.19-.27-11.23-.27-4.76,0-7.29.11-7.59.35-.48.42-1,1.81-1.6,4.18q-.79,3.24-1.92,3.51a74.56,74.56,0,0,1-9.56.32q-6.42,0-6.42-1.14t9.48-25q10.26-25.89,11.15-28.47c.33-1,.73-1.49,1.17-1.49.76,0,1.92.07,3.5.2s2.76.19,3.55.19,1.86,0,3.33-.13,2.56-.14,3.29-.14q.79,0,1.47,1.29,2.06,4.09,12,28.12Q238.77,120.53,238.78,121.59ZM209.05,86c-.58,1.15-1.58,3.63-3,7.46q-2.27,6.11-2.27,7.15,0,.7,2.52.78c.86.06,2.29.08,4.27.08s2.87-.21,3.06-.62a1.37,1.37,0,0,0,.09-.55c0-.86-.65-3.23-1.93-7.11A52.65,52.65,0,0,0,209.05,86Z" transform="translate(-28 -39)" fill="#605f5f" stroke="#605f5f" stroke-miterlimit="10"/><path d="M298.23,121.31c.06.71-.34,1.06-1.17,1.06a33.75,33.75,0,0,1-4.6-.86c-2.52-.57-4.08-1-4.67-1.17a49,49,0,0,1-16.81,3.2q-13,0-21.26-8.05t-8.22-20q0-12.39,8-20.55,8.22-8.44,21.34-8.44a31.77,31.77,0,0,1,12,2.27,22.5,22.5,0,0,1,9.56,7,2.82,2.82,0,0,1,.71,1.33q0,1.25-3.75,5.6t-4.84,4.36a8.27,8.27,0,0,1-1.93-1.6,17.57,17.57,0,0,0-4.19-3,15.48,15.48,0,0,0-7.05-1.61,12.38,12.38,0,0,0-10,4.38,14.92,14.92,0,0,0-3.43,10q0,6.36,3.56,10.08t10.44,3.83a27.39,27.39,0,0,0,9.56-2c-.08-.86-.34-3-.75-6.56a50.69,50.69,0,0,1-.55-6.56c0-.5.18-.8.55-.9a2.07,2.07,0,0,1,.67-.08c.81,0,2,.07,3.66.22s2.88.21,3.71.21,2.24-.06,4-.17,3.13-.18,4-.18q1.05,0,1.05,1.29c0,1.25-.07,3.14-.23,5.66s-.23,4.42-.23,5.67q0,5,.8,15.07Z" transform="translate(-28 -39)" fill="#605f5f" stroke="#605f5f" stroke-miterlimit="10"/><path d="M358.81,94.87a28.12,28.12,0,0,1-7.92,19.92q-7,7.54-19.67,7.93-2.43.07-13.37.08-2.06,0-6.18-.12t-6.19-.12c-.81,0-1.21-.29-1.21-.89q0-4.31.35-12.91T305,95.85q0-4.5-.36-13.46T304.27,69c0-.55.4-.87,1.21-1,2-.2,5.24-.31,9.77-.31q12.92,0,16.73.35,9.93.94,15.56,4.69a24.14,24.14,0,0,1,8.34,9.84A27.73,27.73,0,0,1,358.81,94.87Zm-16.05,0a14.51,14.51,0,0,0-4.24-10.78q-4.27-4.34-11.32-4.34c-4.3,0-6.46.54-6.46,1.6q0,2.31-.08,6.94c-.06,3.08-.08,5.39-.08,6.93s0,3.78.08,6.82.08,5.32.08,6.85q0,1.68,6.71,1.68,7.26,0,11.41-4.49Q342.76,101.82,342.76,94.87Z" transform="translate(-28 -39)" fill="#605f5f" stroke="#605f5f" stroke-miterlimit="10"/><path d="M413.4,81.94a6.07,6.07,0,0,1-.67,2.93,127.6,127.6,0,0,1-15,21.29,4.92,4.92,0,0,0-1.34,3c0,1.38.09,3.45.25,6.21s.25,4.82.25,6.17c0,.47-.11.76-.33.86a10.24,10.24,0,0,1-1.13.19,67.74,67.74,0,0,1-7.55.24,73.86,73.86,0,0,1-7.76-.24c-.78-.1-1.17-.48-1.17-1.13q0-2.07.38-6.31c.25-2.82.37-4.94.37-6.34a4.78,4.78,0,0,0-1-2.7q-5.07-6.67-14.51-20.47a5.07,5.07,0,0,1-1-2.5c0-1.56-.09-3.9-.25-7s-.26-5.47-.26-7q0-1.29.84-1.29c1.71,0,4.29.07,7.76.2s6.06.19,7.8.19c.64,0,1,.2,1,.59q0,2-.19,6c-.12,2.67-.19,4.67-.19,6q0,1.17,3.69,5.86c2,2.45,3.57,4.33,4.83,5.66q1.71-1.87,4.56-5.62,3.62-4.69,3.61-5.67,0-2-.31-5.92t-.32-5.91c0-.55.13-.86.38-.94h1.05c1.67,0,4.2-.07,7.57-.22s5.9-.21,7.6-.21q.84,0,.84,1.68,0,2.07.09,6.23T413.4,81.94Z" transform="translate(-28 -39)" fill="#605f5f" stroke="#605f5f" stroke-miterlimit="10"/><path d="M447.24,104.6q0,7.92-7.17,13.59a31.9,31.9,0,0,1-15.31,6.37c-.22,0-.4,0-.54,0-.65,0-2.07-1.83-4.28-5.49s-3.31-5.89-3.31-6.7c0-.29.21-.47.63-.55a47,47,0,0,0,8.05-2.19c2.9-1.35,4.36-3.36,4.36-6q0-2.53-2.85-5.67-4.95-5.31-5.37-5.89a15.15,15.15,0,0,1-2.89-9q0-7.14,7.08-11.87a33.17,33.17,0,0,1,14.22-5.08c.3,0,.54,0,.71,0,.42,0,.75.31,1,.94a107.7,107.7,0,0,0,5.07,10.31.93.93,0,0,1,.12.39q0,.66-.75.66a10.16,10.16,0,0,1-1.13-.11,8.87,8.87,0,0,0-1.22-.12,10.49,10.49,0,0,0-5.28,1.29,4.56,4.56,0,0,0-2.73,4.14q0,2.38,3,5.86Q444,95.74,444.26,96A15,15,0,0,1,447.24,104.6Z" transform="translate(-28 -39)" fill="#605f5f" stroke="#605f5f" stroke-miterlimit="10"/></svg>