<svg id="Layer_1" data-name="Layer 1" xmlns="http://www.w3.org/2000/svg" viewBox="0 0 64 64"><title>mmagdys_02</title><rect x="0.5" y="0.5" width="63" height="63" fill="#fff"/><path d="M95,29V91H33V29H95m1-1H32V92H96V28Z" transform="translate(-32 -28)" fill="#605f5f"/><path d="M86.16,78.08c0,.6-.28.9-.85.9H74.94c-.56,0-.85-.34-.85-1,0-2,.08-4.93.22-8.88s.22-6.9.22-8.88c0-.56-.08-.86-.26-.9-.22.11-1.52,3.13-3.93,9q-2.1,5.22-4.21,10.4a1.24,1.24,0,0,1-.74.79,11.3,11.3,0,0,1-1.17,0c-1,0-1.62-.2-1.82-.59q-1.57-3.23-4.16-9.37-2.75-6.51-4.13-9.41a1,1,0,0,0-.26-.32,1.38,1.38,0,0,0-.21.85q0,2.88.15,8.61T53.94,78c0,.68-.28,1-.82,1H43.33c-.39,0-.63-.06-.72-.19a1.26,1.26,0,0,1-.13-.66c0-2.13.1-5.32.31-9.59s.31-7.47.31-9.6-.1-6.51-.3-12.74c0-1.62-.1-4-.26-7.24l0-.49c0-.39.39-.59,1.23-.59,1.08,0,2.69,0,4.84-.1s3.76-.11,4.83-.11c.22,0,.52.41.91,1.24l8.55,18.77C63.48,59,64,59.59,64.4,59.59c.21,0,.67-.73,1.37-2.2q3-6.15,8.76-18.54c.34-.77.7-1.15,1.09-1.15.56,0,1.42,0,2.56.09s2,.09,2.59.09S82,37.83,83,37.73s1.76-.14,2.25-.14.87.23.87.7c0,2.3-.08,5.75-.25,10.33s-.24,8-.24,10.32c0,2.13.08,5.33.26,9.58S86.16,76,86.16,78.08Z" transform="translate(-32 -28)" fill="#605f5f"/><line x1="9.5" y1="57.5" x2="55.5" y2="57.5" fill="none" stroke="#605f5f" stroke-miterlimit="10"/></svg>